<?xml version="1.0" encoding="utf-8"?>
<svg version="1.1" xmlns="http://www.w3.org/2000/svg" viewBox="0 0 105.1 100.6">
<style type="text/css">.st0{fill:#FC3117;}</style>
<path class="st0" d="M105.1,49.4c0,8.1-1.4,15.3-4,21.6c-2.7,6.3-6.4,11.7-11.1,16.1c-4.7,4.4-10.4,7.8-16.9,10.1
    c-6.5,2.3-13.6,3.5-21.2,3.5c-7.2,0-13.9-1.1-20.2-3.4c-6.3-2.3-11.8-5.6-16.5-9.8C10.4,83.1,6.7,78,4,71.9c-2.7-6.1-4-13-4-20.6
    C0,43.2,1.3,36,4,29.6c2.7-6.3,6.4-11.7,11.2-16.1c4.8-4.4,10.4-7.7,16.9-10C38.7,1.2,45.8,0,53.5,0c7.1,0,13.8,1.1,20.1,3.4
    c6.2,2.3,11.7,5.5,16.3,9.8c4.6,4.3,8.4,9.4,11.1,15.5C103.7,34.9,105.1,41.8,105.1,49.4z"/>
</svg>
