<?xml version="1.0" encoding="UTF-8"?>
<svg id="Warstwa_1" data-name="Warstwa 1" xmlns="http://www.w3.org/2000/svg" viewBox="0 0 392.24 145.43">
  <defs>
    <style>
      .cls-1 {
        fill: #fc3117;
      }
    </style>
  </defs>
  <path class="cls-1" d="M31.93,78.77c5.74-4.25,11.15-9.04,16.24-14.36,5.08-5.32,9.81-11.14,14.18-17.47h32.48c-3.87,7.07-8.17,13.74-12.89,20-4.71,6.27-9.67,12.18-14.86,17.75,5.13,8.89,10.04,18.15,14.77,27.79,4.71,9.64,9.51,19.91,14.39,30.8H61.03c-2.99-6.89-6.06-13.55-9.21-20-3.14-6.45-6.49-12.93-10.04-19.44-1.56,1.13-3.18,2.23-4.83,3.29-1.66,1.06-3.33,2.07-5.02,3.01v33.14H0V3.29L31.93,0V78.77Z"/>
  <path class="cls-1" d="M153.97,44.78c7.13,0,13.82,1.15,20.05,3.43,6.22,2.28,11.67,5.55,16.34,9.81,4.65,4.26,8.35,9.44,11.07,15.54,2.72,6.11,4.09,12.97,4.09,20.61,0,8.07-1.35,15.27-4.04,21.59-2.7,6.32-6.4,11.69-11.12,16.1-4.73,4.42-10.35,7.78-16.85,10.1-6.52,2.31-13.59,3.48-21.22,3.48-7.2,0-13.95-1.15-20.23-3.43-6.29-2.28-11.79-5.55-16.48-9.81-4.7-4.26-8.39-9.44-11.09-15.54-2.69-6.11-4.03-12.97-4.03-20.61,0-8.07,1.34-15.28,4.03-21.64,2.7-6.35,6.43-11.71,11.22-16.1,4.79-4.38,10.43-7.72,16.95-10.04,6.5-2.31,13.61-3.48,21.31-3.48Zm-1.41,26.85c-2.63,0-5.13,.52-7.51,1.55-2.38,1.03-4.47,2.54-6.29,4.51-1.81,1.97-3.25,4.4-4.31,7.28s-1.6,6.14-1.6,9.76c0,3.95,.55,7.4,1.65,10.38,1.09,2.97,2.56,5.44,4.41,7.41s4,3.46,6.47,4.46c2.47,1,5.12,1.5,7.93,1.5s5.23-.52,7.6-1.55c2.38-1.03,4.48-2.54,6.29-4.51,1.81-1.97,3.24-4.38,4.27-7.23,1.03-2.85,1.55-6.09,1.55-9.72,0-4-.51-7.48-1.55-10.42-1.03-2.94-2.47-5.41-4.32-7.41-1.84-2.01-4.02-3.5-6.52-4.51-2.51-1-5.2-1.5-8.08-1.5Z"/>
  <path class="cls-1" d="M273.48,44.78c7.13,0,13.82,1.15,20.05,3.43,6.22,2.28,11.67,5.55,16.34,9.81,4.65,4.26,8.35,9.44,11.07,15.54,2.72,6.11,4.09,12.97,4.09,20.61,0,8.07-1.35,15.27-4.04,21.59-2.7,6.32-6.4,11.69-11.12,16.1-4.73,4.42-10.35,7.78-16.85,10.1-6.52,2.31-13.59,3.48-21.22,3.48-7.2,0-13.95-1.15-20.23-3.43-6.29-2.28-11.79-5.55-16.48-9.81-4.7-4.26-8.39-9.44-11.09-15.54-2.69-6.11-4.03-12.97-4.03-20.61,0-8.07,1.34-15.28,4.03-21.64,2.7-6.35,6.43-11.71,11.22-16.1,4.79-4.38,10.43-7.72,16.95-10.04,6.5-2.31,13.61-3.48,21.31-3.48Zm-1.41,26.85c-2.63,0-5.13,.52-7.51,1.55-2.38,1.03-4.47,2.54-6.29,4.51-1.81,1.97-3.25,4.4-4.31,7.28-1.06,2.88-1.6,6.14-1.6,9.76,0,3.95,.55,7.4,1.65,10.38,1.09,2.97,2.56,5.44,4.41,7.41,1.85,1.97,4,3.46,6.47,4.46,2.47,1,5.12,1.5,7.93,1.5s5.23-.52,7.6-1.55c2.38-1.03,4.48-2.54,6.29-4.51,1.81-1.97,3.24-4.38,4.27-7.23s1.55-6.09,1.55-9.72c0-4-.51-7.48-1.55-10.42s-2.47-5.41-4.32-7.41c-1.84-2.01-4.02-3.5-6.52-4.51-2.51-1-5.2-1.5-8.08-1.5Z"/>
  <path class="cls-1" d="M374.68,109.85c0,2.94,.64,5.12,1.92,6.53,1.29,1.4,3.12,2.11,5.49,2.11,1.38,0,2.63-.16,3.76-.47,1.13-.31,2.16-.75,3.1-1.32l3.29,24.88c-2.95,1.19-6.19,2.12-9.72,2.82-3.53,.69-7,1.03-10.37,1.03-4.76,0-8.97-.66-12.63-1.97-3.66-1.32-6.73-3.3-9.2-5.96-2.48-2.66-4.35-6.01-5.63-10.04-1.29-4.04-1.93-8.78-1.93-14.23V3.29l31.92-3.29V109.85Z"/>
</svg>